<svg width="13" height="10" viewBox="0 0 13 10" fill="none" xmlns="http://www.w3.org/2000/svg">
<path d="M11.9962 0.000326073C11.8014 0.00613192 11.6164 0.0875663 11.4806 0.227377L3.76087 7.9471L1.29114 5.47738C1.22203 5.4054 1.13925 5.34793 1.04766 5.30834C0.956061 5.26875 0.857486 5.24784 0.757706 5.24682C0.657926 5.24581 0.558946 5.26471 0.466563 5.30243C0.37418 5.34015 0.290251 5.39592 0.219692 5.46648C0.149133 5.53703 0.0933618 5.62096 0.0556449 5.71335C0.0179281 5.80573 -0.000976355 5.90471 3.88211e-05 6.00449C0.001054 6.10427 0.0219682 6.20284 0.0615569 6.29444C0.101146 6.38604 0.158613 6.46881 0.230593 6.53792L3.23059 9.53792C3.37125 9.67852 3.56199 9.75751 3.76087 9.75751C3.95974 9.75751 4.15048 9.67852 4.29114 9.53792L12.5411 1.28792C12.6495 1.18258 12.7235 1.04695 12.7535 0.898806C12.7835 0.750666 12.768 0.596929 12.7091 0.457739C12.6502 0.31855 12.5506 0.200403 12.4234 0.118781C12.2962 0.0371593 12.1473 -0.0041292 11.9962 0.000326073Z" fill="#224A9A"/>
</svg>
