<svg width="226" height="61" viewBox="0 0 226 61" fill="none" xmlns="http://www.w3.org/2000/svg">
<path d="M82.0297 12.5454L76.5985 18.2794L71.1483 12.5454H69.748V25.83H73.2111V22.1588L73.1544 19.2255L76.466 22.6129H76.7121L80.0426 19.2255L79.9669 22.1588V25.83H83.4301V12.5454H82.0297Z" fill="black"/>
<path d="M96.2038 12.5264L89.3154 19.0929L89.3722 16.7463V12.5831H85.8901V25.8677H86.9688L93.8951 19.2064L93.8571 21.4017V25.8298H97.3392V12.5264H96.2038Z" fill="black"/>
<path d="M105.608 12.583H99.7983V25.8297H103.262V22.1775H105.608C108.56 22.1775 110.566 20.2661 110.566 17.3708C110.566 14.4943 108.617 12.583 105.608 12.583ZM105.267 19.1875H103.262V15.5919H105.267C106.384 15.5919 107.046 16.2353 107.046 17.3708C107.046 18.5063 106.384 19.1875 105.267 19.1875Z" fill="black"/>
<path d="M80.0615 32.6846L73.1732 39.2511L73.2301 36.9045V32.7413H69.748V46.026H70.8267L77.7528 39.3646L77.715 41.5599V45.9882H81.1971V32.6846H80.0615Z" fill="black"/>
<path d="M84.2847 45.9881H87.7477V35.8447H92.5355V32.7412H84.2847V45.9881Z" fill="black"/>
<path d="M100.297 32.7412H94.4873V45.9881H97.9504V42.3357H100.297C103.249 42.3357 105.255 40.4243 105.255 37.529C105.255 34.6525 103.306 32.7412 100.297 32.7412ZM99.9563 39.3457H97.9504V35.7501H99.9563C101.073 35.7501 101.735 36.3935 101.735 37.529C101.735 38.6645 101.073 39.3457 99.9563 39.3457Z" fill="black"/>
<path d="M113.584 46.1969C117.652 46.1969 120.529 43.3772 120.529 39.3652C120.529 35.3535 117.652 32.5337 113.584 32.5337C109.515 32.5337 106.639 35.3535 106.639 39.3652C106.639 43.3772 109.515 46.1969 113.584 46.1969ZM113.584 42.9041C111.54 42.9041 110.177 41.4847 110.177 39.3652C110.177 37.2268 111.54 35.8265 113.584 35.8265C115.628 35.8265 116.99 37.2457 116.99 39.3652C116.99 41.4847 115.628 42.9041 113.584 42.9041Z" fill="black"/>
<path d="M122.916 45.9881H126.379V35.8636H130.467V45.9881H133.93V32.7412H122.916V45.9881Z" fill="black"/>
<path d="M142.827 32.7412H137.017V45.9881H140.48V42.3357H142.827C145.779 42.3357 147.785 40.4243 147.785 37.529C147.785 34.6525 145.836 32.7412 142.827 32.7412ZM142.486 39.3457H140.48V35.7501H142.486C143.603 35.7501 144.265 36.3935 144.265 37.529C144.265 38.6645 143.603 39.3457 142.486 39.3457Z" fill="black"/>
<path d="M155.3 32.6094H153.786L147.561 45.7994V45.9887H151.289L152.027 44.3045H157.023L157.78 45.9887H161.508V45.7994L155.3 32.6094ZM154.544 38.0784L155.736 41.3145H153.295L154.544 38.0784Z" fill="black"/>
<path d="M171.105 39.4781C172.675 38.1346 173.3 35.8258 173.3 32.7412H169.837C169.837 35.9773 169.156 37.6805 166.79 37.6805H166.449V32.7412H162.986V45.9881H166.449V40.746H166.96C167.32 40.746 167.66 40.7271 168.001 40.6894L170.442 45.9881H174.227V45.7988L171.105 39.4781Z" fill="black"/>
<path d="M184.771 32.7412H174.911V35.8447H178.109V45.9881H181.572V35.8447H184.771V32.7412Z" fill="black"/>
<path d="M197.074 32.6846L190.186 39.2511L190.243 36.9045V32.7413H186.76V46.026H187.839L194.766 39.3646L194.727 41.5599V45.9882H198.21V32.6846H197.074Z" fill="black"/>
<path d="M209.415 39.4781C210.986 38.1346 211.61 35.8258 211.61 32.7412H208.148C208.148 35.9773 207.466 37.6805 205.102 37.6805H204.761V32.7412H201.297V45.9881H204.761V40.746H205.271C205.63 40.746 205.971 40.7271 206.312 40.6894L208.754 45.9881H212.538V45.7988L209.415 39.4781Z" fill="black"/>
<path d="M224.86 32.6846L217.972 39.2511L218.028 36.9045V32.7413H214.547V46.026H215.624L222.551 39.3646L222.514 41.5599V45.9882H225.995V32.6846H224.86Z" fill="black"/>
<path d="M30.3441 59.8874C46.7551 59.8874 60.0588 46.5837 60.0588 30.1727C60.0588 13.7617 46.7551 0.458008 30.3441 0.458008C13.9331 0.458008 0.629395 13.7617 0.629395 30.1727C0.629395 46.5837 13.9331 59.8874 30.3441 59.8874Z" fill="#8BAAD7"/>
<path d="M17.4904 56.7894L20.1583 56.0589L20.6016 55.054L22.4449 54.9344L23.0252 52.5711L24.6212 51.596L24.8873 49.9997L21.1889 48.0787L17.1731 45.9506L15.612 43.7963L12.2996 40.4869L8.4825 37.753L5.32137 37.1431L4.96656 33.7146L4.55275 30.6111L3.93216 25.2616L6.32627 27.1531L6.94686 28.3945L8.59728 27.0061L11.1735 24.759L14.4097 23.9542L19.0351 24.6407L18.6047 18.2305L17.9417 16.1287L20.8355 15.1549L20.4243 10.7792L23.487 13.5756L23.3562 19.0622L24.773 18.9876L29.0074 16.1333L31.8714 10.9248L27.5809 9.80888L21.0868 7.75804L17.2761 5.94456L20.7199 2.32617L15.9909 4.06993L12.1738 7.05405L8.39507 10.8382L4.2631 16.6069L2.13504 21.9784L1.92236 23.7836L1.53027 28.2468L4.34597 36.552L5.40987 41.5172L8.39507 48.5515L12.7695 54.1376L17.4904 56.7894Z" fill="#2256A6"/>
<path d="M46.0416 54.861L46.2966 52.7723L46.7292 50.8569L47.9114 48.5071L46.1382 46.261L46.8033 44.2512L46.3452 43.9406L45.0297 44.3397L41.5865 45.1526L37.4784 45.6549L34.9652 43.4281L33.9316 42.9508L33.4883 41.266L33.9464 37.3054L37.7442 32.1626L38.7287 30.6616L44.5717 28.7489L48.9756 30.4041L53.0542 27.2122L52.6109 24.8181L50.5421 25.7342L49.1233 24.552L49.4484 27.0939L48.9756 27.2712L46.6407 24.9658L44.3944 24.6408L46.7362 26.1459L46.5815 27.4779L44.8388 26.4476L43.3895 25.4386L40.8476 28.3648L40.02 29.8425L37.9807 30.5224L36.4735 28.8376L36.6596 27.4235L39.2221 26.089L38.158 24.6703L40.0498 22.2467L40.8476 19.4092L39.0744 17.3699L40.1088 13.8824L40.7886 12.0794L43.6555 11.4588L44.5491 9.3101L41.823 5.04512L37.5374 2.00092L31.7456 0.550293L36.2664 1.02552L41.6162 2.68051L48.4435 6.6411L54.3844 12.7888L58.2447 20.0768L59.2906 24.3452L58.9063 29.7106L57.9309 37.7045L55.7438 44.5615L51.6947 50.4726L47.5662 54.2584L46.0416 54.861Z" fill="#2256A6"/>
<path d="M6.66443 48.0747C6.66443 48.0747 6.77922 48.2155 7.00182 48.488C7.23004 48.7561 7.5406 49.178 8.00779 49.675C8.90836 50.6933 10.3056 52.1458 12.3672 53.6337C13.3785 54.4012 14.5827 55.1336 15.9317 55.8435C17.2785 56.5583 18.8053 57.1955 20.4793 57.7187C22.1525 58.2433 23.977 58.6515 25.9198 58.8757C27.8622 59.102 29.9214 59.1363 32.0446 58.9543C33.105 58.8499 34.1832 58.7089 35.2664 58.4865C35.5372 58.4326 35.8094 58.3787 36.083 58.3245C36.3536 58.2572 36.6253 58.1896 36.898 58.1218C37.447 57.999 37.9855 57.8171 38.534 57.6568C40.7143 56.971 42.8837 56.0004 44.9587 54.7445C45.2252 54.5951 45.469 54.4251 45.72 54.2607C45.9708 54.0944 46.2224 53.9279 46.4747 53.7605C46.7306 53.5725 46.9875 53.3837 47.245 53.1941L47.6317 52.9096L47.9747 52.6309C48.2166 52.4354 48.4593 52.2396 48.7028 52.0433C48.9445 51.8446 49.1727 51.629 49.4095 51.4219C49.8893 51.014 50.3283 50.5576 50.7837 50.1134C51.6623 49.1946 52.5202 48.2326 53.2824 47.1808C53.6823 46.6691 54.0306 46.1166 54.4066 45.58C54.5839 45.3046 54.7515 45.0219 54.9253 44.7422L55.1838 44.3209L55.4223 43.8864C56.7176 41.5792 57.697 39.0419 58.3211 36.3841C58.6373 35.0552 58.8347 33.6923 58.9669 32.3171C59.0929 30.9396 59.0921 29.5475 59.0318 28.1529C58.7279 22.5794 56.808 16.977 53.4098 12.3403C52.5459 11.1957 51.6245 10.0902 50.6137 9.06813C49.5935 8.05814 48.5223 7.09401 47.3675 6.23875C46.2044 5.39799 44.9978 4.61515 43.729 3.95058C42.4565 3.2962 41.1485 2.71504 39.8027 2.25241C37.112 1.33065 34.306 0.806615 31.5222 0.725354C28.7387 0.633098 25.9857 0.976109 23.3878 1.6683L22.9002 1.79381L22.4202 1.94239C22.101 2.04323 21.7811 2.13709 21.4654 2.24222C20.8416 2.47555 20.2127 2.68232 19.612 2.95426C18.3912 3.44907 17.2399 4.06509 16.1231 4.69936C15.576 5.03647 15.0179 5.35669 14.5103 5.72008C14.2512 5.90003 13.9932 6.0639 13.7352 6.25431C13.4767 6.44901 13.2189 6.64318 12.9617 6.83681L12.7684 6.98056L12.6236 7.08837C12.6037 7.10286 12.623 7.09079 12.5935 7.11358L12.2331 7.41181C11.9931 7.61 11.7538 7.80765 11.5151 8.00477C11.2866 8.21288 11.059 8.42046 10.8318 8.62723C10.606 8.83535 10.3753 9.03676 10.1659 9.25882C8.42428 10.9656 6.9286 12.822 5.70567 14.7615C5.40959 15.2523 5.09554 15.7272 4.83566 16.2279C4.69996 16.4749 4.5648 16.7211 4.43017 16.966C4.3076 17.217 4.18558 17.467 4.06409 17.7156C3.57062 18.7076 3.1544 19.7141 2.78028 20.7136C1.32455 24.7306 0.824385 28.7107 0.963842 32.2138C1.03062 33.9675 1.24571 35.6088 1.58309 37.0967C1.91484 38.5851 2.30666 39.94 2.78376 41.1171C3.68004 43.4967 4.72061 45.2263 5.46778 46.3583C5.8242 46.937 6.15327 47.3503 6.35307 47.6408C6.55367 47.9205 6.6588 48.0672 6.66443 48.0747ZM6.51345 48.1862C6.51345 48.1862 6.40563 48.039 6.19698 47.7539C5.99343 47.4643 5.66356 47.0585 5.29587 46.4755C4.52913 45.3354 3.48266 43.6056 2.4783 41.2402C1.49217 38.8761 0.525624 35.8662 0.161426 32.2717C-0.0230872 30.4786 -0.0625111 28.5471 0.111811 26.5191C0.300883 24.4959 0.673932 22.3678 1.36961 20.2333C1.72549 19.1702 2.10981 18.087 2.60837 17.0285C2.73254 16.7638 2.85725 16.4977 2.98249 16.2306C3.12007 15.9694 3.25845 15.7071 3.39738 15.4438C3.66422 14.9103 3.98632 14.4019 4.29178 13.8778C4.44062 13.6131 4.61924 13.3658 4.78471 13.1086C4.95394 12.8536 5.12021 12.5951 5.30017 12.3446C5.48521 12.0978 5.6708 11.8503 5.85746 11.6014L6.13825 11.2281L6.43648 10.8663C6.63681 10.6255 6.83795 10.3839 7.03963 10.1412C7.24292 9.89978 7.46471 9.67317 7.67765 9.43743C8.09897 8.96086 8.56025 8.51647 9.02609 8.07128C9.25352 7.84279 9.50186 7.63548 9.74564 7.422C9.9905 7.20959 10.2364 6.99692 10.4829 6.78344C10.7393 6.58177 10.9965 6.37982 11.2545 6.17707L11.6423 5.87268L11.7066 5.8236L11.7557 5.789L11.8541 5.71954L12.051 5.58035C12.3149 5.39638 12.5796 5.2116 12.8448 5.02655C13.1151 4.84311 13.4118 4.66798 13.695 4.48829C14.2633 4.11686 14.8554 3.80817 15.4436 3.47857C16.6402 2.85879 17.8784 2.28728 19.1732 1.83243C19.8118 1.58221 20.4766 1.3977 21.134 1.18637C21.4665 1.0925 21.8031 1.01044 22.138 0.921667L22.642 0.791596L23.1526 0.685126C28.5947 -0.47854 34.4996 -0.174952 39.9889 1.71148C42.7311 2.65389 45.3676 3.98196 47.7765 5.67073C48.9895 6.50453 50.1272 7.44909 51.2157 8.44996C52.2952 9.46237 53.2888 10.5654 54.2264 11.716C54.6794 12.3258 55.1235 12.863 55.5408 13.5042C55.7465 13.8161 55.9745 14.12 56.1625 14.4394L56.7434 15.392C57.479 16.6841 58.1535 18.0159 58.6987 19.4017C59.2319 20.7901 59.6948 22.2077 60.0233 23.6559C60.3424 25.1049 60.58 26.5709 60.6884 28.0437C61.1435 33.939 59.8109 39.8483 57.1282 44.8194C54.4584 49.8117 50.4275 53.8085 45.9654 56.4228C45.4036 56.7447 44.8495 57.0716 44.274 57.3491C43.9878 57.4907 43.7086 57.6433 43.4201 57.7742C43.1307 57.9032 42.8424 58.0317 42.5552 58.1599L42.1247 58.3498L41.6873 58.5192C41.3966 58.6319 41.1067 58.744 40.8181 58.8558C40.5274 58.9612 40.2324 59.0519 39.9409 59.1468C39.6477 59.2375 39.3608 59.3434 39.0647 59.4158C38.4763 59.57 37.8986 59.7441 37.3116 59.8583C37.0198 59.9216 36.7293 59.9844 36.4402 60.0471C36.1484 60.0962 35.858 60.145 35.5691 60.1935C34.4135 60.3904 33.2651 60.4735 32.1439 60.5325C29.8972 60.6339 27.7445 60.4266 25.7425 60.0694C23.7389 59.7057 21.8835 59.1621 20.2012 58.5117C16.8269 57.2142 14.1742 55.4917 12.1529 53.9163C10.1342 52.3252 8.74074 50.8561 7.8458 49.8176C7.3821 49.311 7.07503 48.8819 6.84895 48.6089L6.51452 48.1879L6.51345 48.1862Z" fill="black"/>
<path d="M38.5342 49.9264C38.8651 50.9865 38.2738 52.114 37.2139 52.445L17.5624 58.5781C16.5023 58.9091 15.3748 58.3177 15.0439 57.2578L8.91072 37.6064C8.57978 36.5463 9.17113 35.4188 10.231 35.0878L29.8824 28.9547C30.9426 28.6237 32.07 29.2151 32.401 30.275L38.5342 49.9264Z" fill="white"/>
<path d="M43.8092 2.3907C44.8693 2.05976 45.9968 2.65111 46.3277 3.71099L52.4609 23.3624C52.7919 24.4226 52.2005 25.55 51.1406 25.881L31.4892 32.0142C30.4291 32.3451 29.3016 31.7537 28.9707 30.6939L22.8375 11.0424C22.5065 9.98229 23.0979 8.85483 24.1578 8.52388L43.8092 2.3907Z" fill="white"/>
<path d="M23.3745 40.845C21.6125 41.398 20.5005 43.1421 20.8903 44.7413C21.2803 46.3402 23.0249 47.1878 24.7869 46.6348C26.5489 46.0819 27.661 44.3377 27.2712 42.7388C26.8811 41.1397 25.1365 40.292 23.3745 40.845Z" fill="black"/>
<path d="M29.8961 29.0064C29.8953 29.0067 29.5432 29.1196 28.8816 29.3315C28.2192 29.5436 27.2464 29.8512 26.016 30.2674C24.781 30.6692 23.2974 31.2077 21.5869 31.7977C19.8775 32.391 17.9564 33.085 15.8501 33.8075C14.798 34.172 13.6974 34.5367 12.5573 34.9116C11.9863 35.0967 11.406 35.285 10.8165 35.4759C10.6711 35.5228 10.5252 35.5701 10.3785 35.6175C10.2715 35.6569 10.1659 35.7009 10.0709 35.7637C9.8789 35.8844 9.70967 36.048 9.59409 36.2483C9.47823 36.4465 9.39965 36.672 9.38999 36.9037C9.38141 37.014 9.3916 37.1494 9.40716 37.2301L9.41091 37.265L9.42647 37.324L9.45811 37.4423L9.52382 37.648C9.71826 38.2728 9.91537 38.905 10.1144 39.5443C10.5121 40.823 10.9213 42.1283 11.3191 43.4615C12.1223 46.1256 12.9523 48.8789 13.7958 51.6761C14.2085 53.0776 14.6247 54.4902 15.0423 55.9083L15.3475 56.9754C15.4025 57.168 15.439 57.2941 15.5082 57.4349C15.5787 57.5684 15.6589 57.7004 15.7653 57.8109C16.1754 58.2708 16.8606 58.4749 17.474 58.2979C18.8999 57.8857 20.3256 57.4735 21.7462 57.0629C23.1633 56.6421 24.5732 56.217 25.968 55.7834C28.7588 54.9182 31.4894 54.0171 34.1204 53.1076C34.779 52.8832 35.4323 52.6603 36.0792 52.4399C36.4026 52.3296 36.7247 52.2202 37.0449 52.1111C37.3314 52.0201 37.5516 51.8748 37.743 51.6801C37.9324 51.4883 38.06 51.2448 38.1335 50.9943C38.1646 50.8669 38.1888 50.7385 38.188 50.6092C38.1963 50.4799 38.1708 50.3477 38.1563 50.2474C38.1515 50.2182 38.1365 50.1715 38.1271 50.1343L38.1029 50.0457C38.0992 50.031 38.1086 50.0675 38.1 50.0382L38.0241 49.806C37.9734 49.6515 37.923 49.4976 37.8728 49.3439C37.7723 49.0368 37.6722 48.7319 37.573 48.4288C36.7955 45.9996 36.0822 43.6959 35.4739 41.5539C34.8603 39.4134 34.336 37.4396 33.8487 35.6969C33.3601 33.9548 32.9588 32.4282 32.5853 31.1846C32.4943 30.873 32.4083 30.578 32.3273 30.3004C32.25 30.0322 32.1191 29.7992 31.9612 29.6136C31.6428 29.2395 31.2465 29.052 30.9212 28.9753C30.5929 28.8946 30.3247 28.9177 30.1576 28.9474C30.0731 28.9557 30.0053 28.9815 29.9616 28.9901C29.9189 29.0008 29.8978 29.0062 29.8961 29.0064ZM29.8682 28.9029C29.8682 28.9029 29.8905 28.897 29.9348 28.8855C29.9804 28.8761 30.0412 28.8511 30.1356 28.8396C30.3191 28.805 30.5972 28.7785 30.9482 28.8595C31.2942 28.9372 31.7177 29.1314 32.062 29.5275C32.2307 29.7254 32.379 29.9698 32.474 30.2546C32.5654 30.5289 32.6622 30.8204 32.7649 31.1286C33.1648 32.3641 33.7033 33.8477 34.2923 35.5585C34.8828 37.269 35.5739 39.1909 36.2868 41.3001C37.005 43.4078 37.7288 45.7083 38.4709 48.1486C38.5615 48.4543 38.653 48.7619 38.745 49.0717C38.7911 49.2267 38.837 49.382 38.8834 49.5378L38.9531 49.7719L38.9673 49.8232L38.989 49.9125C38.9984 49.9546 39.0086 49.9862 39.0177 50.0372C39.0566 50.259 39.0698 50.4555 39.0515 50.6551C39.0403 50.8551 38.9949 51.052 38.9357 51.2424C38.8053 51.6197 38.5908 51.9716 38.2952 52.2435C38.0075 52.5158 37.6307 52.7209 37.2649 52.8151C36.9393 52.9078 36.6121 53.0009 36.2833 53.0942C35.626 53.2809 34.9619 53.4692 34.2925 53.659C31.6115 54.4078 28.8526 55.2196 26.0654 56.0955C24.6716 56.5321 23.27 56.9846 21.8653 57.4445C20.4635 57.9146 19.0563 58.3867 17.6488 58.8587C16.8408 59.1376 15.8777 58.9161 15.2644 58.2936C15.1067 58.1431 14.9798 57.9626 14.8699 57.7744C14.7631 57.588 14.6854 57.36 14.6317 57.1988L14.2756 56.1476C13.8127 54.7436 13.3514 53.345 12.8939 51.9577C11.9962 49.1771 11.1131 46.4408 10.2584 43.7927C9.82714 42.4697 9.42137 41.1634 9.02097 39.8855C8.82117 39.2464 8.62352 38.6142 8.42827 37.9899L8.35023 37.7274L8.30598 37.5495L8.29123 37.4637C8.24859 37.2245 8.2451 37.0338 8.25985 36.8219C8.28774 36.4073 8.42881 36.0091 8.64122 35.6631C8.85282 35.315 9.15372 35.0272 9.497 34.8205C9.66757 34.7145 9.85289 34.637 10.0403 34.574C10.1913 34.5276 10.3418 34.4815 10.4917 34.4353C11.0852 34.2573 11.6699 34.0819 12.2443 33.9094C13.3954 33.5694 14.5081 33.2435 15.5808 32.9448C17.7242 32.3408 19.6989 31.8189 21.4423 31.3346C23.185 30.847 24.7113 30.4461 25.9557 30.0738C27.2043 29.7166 28.1795 29.4162 28.8448 29.2137C29.5105 29.0115 29.8656 28.9037 29.8656 28.9037L29.8682 28.9029Z" fill="black"/>
<path d="M33.3033 26.6188C31.7044 26.2945 29.9971 27.1334 28.3306 27.6738C28.5465 28.307 28.7605 28.9356 28.9726 29.5581C29.0826 29.8815 29.192 30.2036 29.3011 30.5238C29.3604 30.6743 29.4138 30.784 29.4787 30.9087C29.5677 31.0122 29.6251 31.1399 29.7375 31.2203L29.8852 31.3566L30.0574 31.4595C30.1636 31.5435 30.3028 31.5598 30.42 31.6167C30.4836 31.6325 30.5498 31.6373 30.6134 31.6497C30.6769 31.6599 30.744 31.6781 30.7965 31.6679C30.8521 31.6647 30.9068 31.6644 30.962 31.6663L31.0036 31.6682L31.0634 31.6545L31.1833 31.6282L31.3788 31.5845L31.611 31.5086L32.0729 31.3574C32.3802 31.2571 32.6851 31.157 32.9882 31.0578C34.4034 30.6048 35.7701 30.1773 37.0931 29.7759C36.053 28.3132 34.6649 26.8947 33.3033 26.6188Z" fill="white"/>
<path d="M52.3974 23.3817C52.3974 23.3817 52.2834 23.0285 52.0699 22.3666C51.8564 21.7045 51.5483 20.7318 51.1245 19.5037C50.9186 18.888 50.6836 18.2084 50.4197 17.4709C50.1609 16.7318 49.8737 15.935 49.5637 15.0843C48.9506 13.381 48.2394 11.4654 47.5011 9.36411C47.1283 8.31442 46.7585 7.21512 46.3792 6.07666C46.1856 5.50837 46.0003 4.92721 45.8101 4.33747C45.7632 4.19264 45.7157 4.04702 45.6683 3.90112C45.6315 3.80404 45.5921 3.7083 45.5347 3.62275C45.4248 3.45003 45.2767 3.29717 45.0949 3.19365C44.9149 3.08959 44.7111 3.01879 44.5022 3.01128C44.4048 3.00377 44.2761 3.01476 44.2152 3.02683L44.1868 3.02925L44.0098 3.07672L43.8111 3.14081C43.1862 3.33552 42.5538 3.53237 41.9147 3.73136C40.636 4.12855 39.3305 4.53834 37.996 4.93204C35.3302 5.72936 32.5754 6.5535 29.776 7.39105C28.3755 7.80701 26.9603 8.21492 25.5378 8.61881L24.4686 8.91731C24.2723 8.97228 24.1591 9.00366 24.0239 9.0683C23.8971 9.134 23.7713 9.20802 23.6659 9.30832C23.2263 9.6929 23.0244 10.3433 23.1883 10.9322C23.5932 12.3606 23.9979 13.7889 24.4013 15.2114C24.611 15.9202 24.8199 16.6277 25.0286 17.333C25.2436 18.0365 25.4582 18.7378 25.6719 19.4362C26.5355 22.2272 27.4481 24.9544 28.3777 27.5791C28.607 28.2362 28.8347 28.8879 29.06 29.5334C29.1731 29.8561 29.2858 30.1771 29.3981 30.4965C29.4896 30.7719 29.6282 30.9701 29.8109 31.1503C29.9911 31.3263 30.2201 31.4437 30.454 31.511C30.5728 31.5389 30.6927 31.5609 30.8128 31.5593C30.9332 31.5666 31.0574 31.5405 31.1424 31.529C31.1693 31.5247 31.2178 31.5089 31.2543 31.4995L31.3133 31.4832L31.3428 31.4751C31.3586 31.4711 31.3109 31.4837 31.3446 31.4738L31.5766 31.3968C31.7308 31.3458 31.8848 31.2949 32.0382 31.2439C32.345 31.1423 32.6496 31.0414 32.9524 30.9411C35.3803 30.1591 37.6843 29.4471 39.8306 28.8528C41.9734 28.2464 43.9524 27.7387 45.7029 27.2764C46.5788 27.0471 47.3973 26.8296 48.1522 26.6214C48.9088 26.419 49.6012 26.2251 50.2245 26.043C50.5369 25.9537 50.8322 25.8689 51.1101 25.7893C51.3758 25.7142 51.6078 25.5854 51.7921 25.4288C52.1632 25.114 52.3499 24.7208 52.4266 24.3982C52.5068 24.0726 52.4843 23.8057 52.4553 23.6408C52.4475 23.5574 52.4215 23.4887 52.4132 23.4453C52.4022 23.401 52.3966 23.3785 52.3966 23.3785L52.3974 23.3817ZM52.5261 23.345C52.5261 23.345 52.5323 23.3675 52.5441 23.4115C52.5534 23.4574 52.5784 23.5174 52.5902 23.6132C52.6256 23.7988 52.6524 24.078 52.5711 24.432C52.4931 24.7803 52.2984 25.2073 51.8996 25.5549C51.6998 25.7249 51.4544 25.8756 51.1675 25.9727C50.8936 26.0652 50.6024 26.1636 50.2945 26.2674C49.6782 26.4723 48.9986 26.7067 48.2611 26.9706C47.5217 27.2289 46.7249 27.5156 45.874 27.8251C44.1715 28.4406 42.255 29.1486 40.1479 29.8687C38.0442 30.6008 35.7445 31.3257 33.3027 32.0635C32.9967 32.1531 32.6885 32.2435 32.3785 32.3344C32.2235 32.3797 32.0679 32.4253 31.9119 32.4712L31.6775 32.5398L31.6209 32.5559L31.5911 32.5629L31.5316 32.5771C31.4889 32.5867 31.4592 32.5961 31.4055 32.6058C31.1682 32.6476 30.9638 32.6597 30.7554 32.6409C30.5463 32.6286 30.3408 32.5814 30.1418 32.5189C29.7479 32.3821 29.3815 32.1576 29.0983 31.8487C28.8138 31.5494 28.6016 31.1506 28.508 30.7741C28.4187 30.4477 28.3289 30.1194 28.2385 29.7898C28.0567 29.1306 27.8732 28.4652 27.6882 27.7942C26.9595 25.107 26.159 22.3447 25.2817 19.5579C25.0602 18.862 24.8376 18.1631 24.6147 17.4623C24.3849 16.7637 24.1545 16.0626 23.9239 15.3605C23.4463 13.9611 22.967 12.5561 22.4875 11.151C22.1957 10.3186 22.4194 9.32093 23.0622 8.68211C23.2178 8.51771 23.4044 8.38522 23.5997 8.27044C23.7914 8.15887 24.0322 8.076 24.1894 8.02236L25.2386 7.65977C26.6385 7.18294 28.0341 6.71334 29.4228 6.25903C32.2012 5.35551 34.9359 4.46646 37.5821 3.60612C38.9038 3.17085 40.2104 2.76535 41.488 2.36468C42.1271 2.16461 42.7592 1.96695 43.3836 1.77171L43.6534 1.69206L43.7719 1.66256L43.8312 1.64808L43.9232 1.63199C44.0481 1.61027 44.1712 1.59471 44.2758 1.59364C44.3858 1.58559 44.4952 1.59176 44.6044 1.599C45.0421 1.62904 45.4618 1.77788 45.8265 2.00236C46.1928 2.22576 46.4959 2.54329 46.7139 2.90561C46.8252 3.08557 46.9065 3.28081 46.9727 3.47846C47.0189 3.62999 47.065 3.78098 47.1108 3.9317C47.29 4.52466 47.4681 5.10824 47.6319 5.68565C47.9677 6.83778 48.289 7.9521 48.5794 9.02753C49.1673 11.1757 49.6718 13.156 50.1365 14.9054C50.3653 15.7816 50.5823 16.6003 50.7901 17.3553C50.9923 18.1121 51.1854 18.8046 51.3665 19.4284C51.7167 20.6795 52.016 21.6546 52.2171 22.3205C52.4183 22.9867 52.5256 23.3418 52.5256 23.3418L52.5261 23.345Z" fill="black"/>
<path d="M33.4839 10.7451C33.1897 9.50988 31.8475 8.84893 30.4863 9.26821C29.1249 9.68783 28.2598 11.0294 28.554 12.2646C28.8484 13.4995 30.1904 14.1608 31.5515 13.7412C32.913 13.3219 33.7781 11.9803 33.4839 10.7451Z" fill="black"/>
<path d="M42.874 7.95995C42.5798 6.72473 41.2377 6.06378 39.8765 6.48306C38.515 6.90267 37.6499 8.2442 37.9441 9.47942C38.2386 10.7143 39.5805 11.3756 40.9417 10.9561C42.3031 10.5367 43.1683 9.19517 42.874 7.95995Z" fill="black"/>
<path d="M35.5191 17.6074C35.2248 16.3722 33.8827 15.7112 32.5215 16.1305C31.1601 16.5501 30.2949 17.8917 30.5892 19.1269C30.8836 20.3618 32.2255 21.0231 33.5867 20.6035C34.9481 20.1842 35.8133 18.8426 35.5191 17.6074Z" fill="black"/>
<path d="M44.9092 14.8223C44.615 13.587 43.2728 12.9261 41.9116 13.3454C40.5502 13.765 39.6851 15.1065 39.9793 16.3417C40.2737 17.5766 41.6157 18.2379 42.9768 17.8184C44.3383 17.399 45.2034 16.0575 44.9092 14.8223Z" fill="black"/>
<path d="M37.5552 24.4682C37.2609 23.233 35.9188 22.5721 34.5576 22.9914C33.1962 23.411 32.331 24.7525 32.6253 25.9877C32.9197 27.2226 34.2616 27.8839 35.6228 27.4644C36.9843 27.045 37.8494 25.7035 37.5552 24.4682Z" fill="black"/>
<path d="M46.9443 21.6821C46.6501 20.4469 45.308 19.7859 43.9468 20.2052C42.5853 20.6248 41.7202 21.9664 42.0144 23.2016C42.3089 24.4365 43.6508 25.0978 45.012 24.6782C46.3734 24.2589 47.2386 22.9173 46.9443 21.6821Z" fill="black"/>
</svg>
