<svg width="20" height="20" viewBox="0 0 20 20" fill="none" xmlns="http://www.w3.org/2000/svg">
<path d="M19 6.55182V11.0384C19 14.6276 17.2 16.4222 13.6 16.4222H13.15C12.871 16.4222 12.601 16.5568 12.43 16.7811L11.08 18.5757C10.486 19.3654 9.514 19.3654 8.92 18.5757L7.57 16.7811C7.426 16.5837 7.093 16.4222 6.85 16.4222H6.4C2.8 16.4222 1 15.5249 1 11.0384V6.55182C1 2.96258 2.8 1.16797 6.4 1.16797H10" stroke="#224A9A" stroke-width="1.5" stroke-miterlimit="10" stroke-linecap="round" stroke-linejoin="round"/>
<path d="M12.9334 3.40308C12.6309 2.49558 12.9884 1.37725 13.9784 1.06558C14.4918 0.909749 15.1334 1.03808 15.5001 1.52392C15.8484 1.01975 16.5084 0.909749 17.0218 1.06558C18.0118 1.36808 18.3693 2.49558 18.0668 3.40308C17.5993 4.84225 15.9584 5.58475 15.5001 5.58475C15.0418 5.58475 13.4193 4.85142 12.9334 3.40308Z" stroke="#224A9A" stroke-width="1.5" stroke-linecap="round" stroke-linejoin="round"/>
<path d="M13.6633 9.2513H13.6715" stroke="#224A9A" stroke-width="2" stroke-linecap="round" stroke-linejoin="round"/>
<path d="M9.99578 9.2513H10.004" stroke="#224A9A" stroke-width="2" stroke-linecap="round" stroke-linejoin="round"/>
<path d="M6.3283 9.2513H6.33653" stroke="#224A9A" stroke-width="2" stroke-linecap="round" stroke-linejoin="round"/>
</svg>
