<svg width="139" height="108" viewBox="0 0 139 108" fill="none" xmlns="http://www.w3.org/2000/svg">
<path style="mix-blend-mode:multiply" opacity="0.65" d="M70.7986 103.057C108.465 100.703 138.419 89.614 137.701 78.289C136.984 66.9641 105.868 59.692 68.2014 62.0463C30.5348 64.4006 0.581399 75.4898 1.29859 86.8147C2.01578 98.1396 33.132 105.412 70.7986 103.057Z" fill="url(#paint0_radial_204_6315)"/>
<path d="M78.898 77.0818L30.0586 56.7839L72.0227 25.2891L78.898 77.0818Z" fill="url(#paint1_linear_204_6315)"/>
<path d="M95.0446 83.7923L78.8975 77.0814L112.58 42.1577L95.0446 83.7923Z" fill="url(#paint2_linear_204_6315)"/>
<path d="M72.0219 25.2888L31.4551 8.42896L82.6171 0.109375L72.0219 25.2888Z" fill="url(#paint3_linear_204_6315)"/>
<path d="M72.0225 25.2887L112.58 42.1577L82.6176 0.109375L72.0225 25.2887Z" fill="url(#paint4_linear_204_6315)"/>
<path d="M13.9111 50.0735L30.0582 56.7843L31.4555 8.42969L13.9111 50.0735Z" fill="url(#paint5_linear_204_6315)"/>
<path d="M30.0586 56.7837L78.898 77.0816L43.9202 92.0109L30.0586 56.7837Z" fill="url(#paint6_linear_204_6315)"/>
<path d="M72.0225 25.2891L112.58 42.158L78.8977 77.0818L72.0225 25.2891Z" fill="url(#paint7_linear_204_6315)"/>
<path d="M72.0227 25.2894L31.4559 8.42969L30.0586 56.7843L72.0227 25.2894Z" fill="url(#paint8_linear_204_6315)"/>
<path d="M13.9111 50.0723L43.9199 92.0103L30.0582 56.7831L13.9111 50.0723Z" fill="url(#paint9_linear_204_6315)"/>
<path d="M95.0449 83.7929L43.9199 92.0113L78.8977 77.082L95.0449 83.7929Z" fill="url(#paint10_linear_204_6315)"/>
<defs>
<radialGradient id="paint0_radial_204_6315" cx="0" cy="0" r="1" gradientUnits="userSpaceOnUse" gradientTransform="translate(93063.4 -18637.4) rotate(-3.57653) scale(10093 910.423)">
<stop stop-color="#8C8C8C"/>
<stop offset="0.13" stop-color="#949494" stop-opacity="0.93"/>
<stop offset="0.35" stop-color="#A9A9A9" stop-opacity="0.75"/>
<stop offset="0.63" stop-color="#CACACA" stop-opacity="0.46"/>
<stop offset="0.96" stop-color="#F9F9F9" stop-opacity="0.05"/>
<stop offset="1" stop-color="white" stop-opacity="0"/>
</radialGradient>
<linearGradient id="paint1_linear_204_6315" x1="54.4476" y1="66.9729" x2="71.7968" y2="25.2457" gradientUnits="userSpaceOnUse">
<stop stop-color="#D072F8"/>
<stop offset="0.27" stop-color="#D482F7"/>
<stop offset="0.71" stop-color="#D997F6"/>
<stop offset="1" stop-color="#DB9FF6"/>
</linearGradient>
<linearGradient id="paint2_linear_204_6315" x1="87.6303" y1="56.3041" x2="103.74" y2="63.0907" gradientUnits="userSpaceOnUse">
<stop stop-color="#BB67DF"/>
<stop offset="0.23" stop-color="#BD69E2"/>
<stop offset="1" stop-color="#C36CEA"/>
</linearGradient>
<linearGradient id="paint3_linear_204_6315" x1="30606.4" y1="5924.57" x2="33037.6" y2="5924.57" gradientUnits="userSpaceOnUse">
<stop stop-color="#BB67DF"/>
<stop offset="0.23" stop-color="#BD69E2"/>
<stop offset="1" stop-color="#C36CEA"/>
</linearGradient>
<linearGradient id="paint4_linear_204_6315" x1="77.293" y1="12.7419" x2="117.768" y2="29.7926" gradientUnits="userSpaceOnUse">
<stop stop-color="#D072F8"/>
<stop offset="0.56" stop-color="#C16AE7"/>
<stop offset="1" stop-color="#BB67DF"/>
</linearGradient>
<linearGradient id="paint5_linear_204_6315" x1="22.6582" y1="29.2808" x2="38.768" y2="36.0673" gradientUnits="userSpaceOnUse">
<stop stop-color="#BB67DF"/>
<stop offset="0.01" stop-color="#BB67DF"/>
<stop offset="0.61" stop-color="#A95DCA"/>
<stop offset="1" stop-color="#A259C2"/>
</linearGradient>
<linearGradient id="paint6_linear_204_6315" x1="54.4476" y1="66.9727" x2="44.0048" y2="92.0889" gradientUnits="userSpaceOnUse">
<stop stop-color="#DB9FF6"/>
<stop offset="1" stop-color="#C47BE4"/>
</linearGradient>
<linearGradient id="paint7_linear_204_6315" x1="92.273" y1="33.7594" x2="74.9238" y2="75.4865" gradientUnits="userSpaceOnUse">
<stop stop-color="#E5AAFF"/>
<stop offset="1" stop-color="#E3A5FF"/>
</linearGradient>
<linearGradient id="paint8_linear_204_6315" x1="26105.3" y1="12103.4" x2="26105.3" y2="14478.1" gradientUnits="userSpaceOnUse">
<stop stop-color="#E5AAFF"/>
<stop offset="1" stop-color="#E3A5FF"/>
</linearGradient>
<linearGradient id="paint9_linear_204_6315" x1="17947.4" y1="13219.4" x2="19373.4" y2="13219.4" gradientUnits="userSpaceOnUse">
<stop stop-color="#D072F8"/>
<stop offset="0.56" stop-color="#C16AE7"/>
<stop offset="1" stop-color="#BB67DF"/>
</linearGradient>
<linearGradient id="paint10_linear_204_6315" x1="49.1673" y1="79.5068" x2="89.6421" y2="96.5576" gradientUnits="userSpaceOnUse">
<stop stop-color="#D072F8"/>
<stop offset="0.28" stop-color="#B161D3"/>
<stop offset="0.58" stop-color="#9351B1"/>
<stop offset="0.83" stop-color="#82489C"/>
<stop offset="1" stop-color="#7B4494"/>
</linearGradient>
</defs>
</svg>
