<svg width="35" height="35" viewBox="0 0 35 35" fill="none" xmlns="http://www.w3.org/2000/svg">
<path d="M17.5 35C27.165 35 35 27.165 35 17.5C35 7.83502 27.165 0 17.5 0C7.83502 0 0 7.83502 0 17.5C0 27.165 7.83502 35 17.5 35Z" fill="#656F83"/>
<path d="M7.92173 17.3155C13.0233 15.0929 16.4252 13.6275 18.1273 12.9195C22.9873 10.8981 23.9971 10.547 24.6553 10.5353C24.8001 10.5328 25.1238 10.5687 25.3335 10.7389C25.5105 10.8825 25.5592 11.0766 25.5825 11.2128C25.6058 11.349 25.6349 11.6593 25.6118 11.9017C25.3484 14.6689 24.2089 21.384 23.6291 24.4833C23.3838 25.7947 22.9008 26.2344 22.4332 26.2775C21.4169 26.371 20.6452 25.6059 19.6609 24.9606C18.1207 23.951 17.2505 23.3225 15.7555 22.3373C14.0277 21.1987 15.1477 20.5729 16.1324 19.5502C16.3901 19.2825 20.8678 15.2097 20.9544 14.8403C20.9653 14.7941 20.9753 14.6218 20.873 14.5309C20.7707 14.4399 20.6196 14.471 20.5107 14.4958C20.3562 14.5308 17.8957 16.1572 13.1291 19.3747C12.4307 19.8543 11.7981 20.088 11.2313 20.0757C10.6064 20.0622 9.40448 19.7225 8.51096 19.432C7.41502 19.0758 6.54399 18.8874 6.61984 18.2824C6.65934 17.9673 7.09331 17.645 7.92173 17.3155Z" fill="white"/>
</svg>
