<svg width="35" height="35" viewBox="0 0 35 35" fill="none" xmlns="http://www.w3.org/2000/svg">
<circle cx="17.5" cy="17.5" r="17.5" fill="white"/>
<path d="M17.5 0C7.83481 0 0 7.83481 0 17.5C0 27.1652 7.83481 35 17.5 35C27.1652 35 35 27.1652 35 17.5C35 7.83481 27.1652 0 17.5 0ZM26.9051 24.141C26.1583 24.608 23.1234 24.7472 22.3887 24.2134C21.9857 23.9207 21.6172 23.5545 21.2673 23.2057C21.0224 22.9619 20.7445 22.8436 20.5341 22.579C20.3623 22.3625 20.2444 22.107 20.0636 21.8932C19.7584 21.5346 19.2887 21.2294 18.9171 21.6676C18.3576 22.3269 19.0051 23.6216 18.259 24.1141C18.0088 24.2794 17.7563 24.3271 17.4435 24.3036L16.7509 24.3351C16.3441 24.343 15.6996 24.3468 15.2367 24.2634C14.7203 24.1702 14.2938 23.8881 13.8267 23.6811C12.9404 23.288 12.0961 22.7523 11.4535 22.0103C9.70461 19.9897 7.35561 17.2107 6.44308 14.6703C6.25541 14.1482 5.75953 13.1144 6.22964 12.6666C6.86882 12.2022 10.006 12.0714 10.4955 12.7895C10.6941 13.0814 10.8196 13.5083 10.9602 13.8393C11.1354 14.2517 11.2302 14.6403 11.5039 15.0054C11.7462 15.3292 11.9247 15.6548 12.112 16.0097C12.3224 16.4081 12.5211 16.7903 12.777 17.1569C12.9506 17.4064 13.4097 17.9026 13.6997 17.9394C14.4079 18.03 14.364 16.3092 14.3113 15.8891C14.2608 15.4842 14.2479 15.0547 14.2612 14.6441C14.2726 14.2938 14.304 13.8002 14.0967 13.5144C13.7585 13.048 13.0052 13.3968 12.9464 12.7701C13.0708 12.5923 13.0446 12.4346 13.8753 12.1609C14.5296 11.9459 14.9523 11.9528 15.3838 11.9873C16.2633 12.0578 17.1959 11.8197 18.0452 12.1048C18.8565 12.3781 18.731 13.531 18.7037 14.2218C18.6669 15.1646 18.7063 16.0851 18.7037 17.0424C18.7026 17.478 18.6851 17.9022 19.2166 17.8666C19.7148 17.8336 19.7656 17.4143 20.0033 17.0686C20.3339 16.5863 20.6376 16.0973 20.9742 15.6169C21.428 14.9675 21.5653 14.2377 21.9925 13.5724C22.1453 13.3346 22.2769 12.8282 22.5123 12.6401C22.6905 12.4972 23.029 12.5719 23.2447 12.5719H23.7577C24.1501 12.5719 24.5504 12.5688 24.9538 12.5829C25.5346 12.603 26.1852 12.4695 26.761 12.551C29.2462 12.9017 23.6375 18.2143 23.9294 19.1628C24.1311 19.8179 25.4106 20.55 25.8724 21.0864C26.4854 21.8011 28.3727 23.2216 26.9051 24.141Z" fill="#656F83"/>
</svg>
