<svg width="35" height="35" viewBox="0 0 35 35" fill="none" xmlns="http://www.w3.org/2000/svg">
<circle cx="17.5" cy="17.5" r="17.5" fill="white"/>
<path d="M20.4221 17.1956L16.3279 15.2851C15.9706 15.1193 15.6771 15.3052 15.6771 15.7008V19.2992C15.6771 19.6948 15.9706 19.8807 16.3279 19.7149L20.4203 17.8044C20.7794 17.6367 20.7794 17.3633 20.4221 17.1956ZM17.5 0C7.83489 0 0 7.83489 0 17.5C0 27.1651 7.83489 35 17.5 35C27.1651 35 35 27.1651 35 17.5C35 7.83489 27.1651 0 17.5 0ZM17.5 24.6093C8.54217 24.6093 8.38544 23.8018 8.38544 17.5C8.38544 11.1982 8.54217 10.3906 17.5 10.3906C26.4578 10.3906 26.6146 11.1982 26.6146 17.5C26.6146 23.8018 26.4578 24.6093 17.5 24.6093Z" fill="#656F83"/>
</svg>
